<?xml version="1.0" standalone="no"?>
<!DOCTYPE svg PUBLIC "-//W3C//DTD SVG 20010904//EN"
 "http://www.w3.org/TR/2001/REC-SVG-20010904/DTD/svg10.dtd">
<svg version="1.0" xmlns="http://www.w3.org/2000/svg"
 width="800.000000pt" height="800.000000pt" viewBox="0 0 800.000000 800.000000"
 preserveAspectRatio="xMidYMid meet">
<metadata>
Created by potrace 1.16, written by Peter Selinger 2001-2019
</metadata>
<g transform="translate(0.000000,800.000000) scale(0.100000,-0.100000)"
fill="#000000" stroke="none">
<path d="M3650 7614 c-807 -79 -1581 -433 -2159 -988 -716 -688 -1121 -1634
-1121 -2621 0 -1193 568 -2286 1550 -2981 426 -301 945 -515 1465 -603 239
-41 431 -54 690 -48 389 10 660 53 1000 159 815 253 1507 779 1979 1503 586
900 735 2048 400 3087 -391 1213 -1419 2147 -2664 2422 -355 79 -785 105
-1140 70z m330 -85 l0 -89 -77 -1 c-43 0 -117 -4 -165 -7 l-87 -7 -5 35 c-3
19 -8 59 -12 88 l-6 52 39 1 c57 2 272 14 294 16 17 2 19 -6 19 -88z m288 75
l103 -6 -6 -57 c-12 -118 -14 -123 -38 -117 -12 3 -86 8 -164 12 l-143 7 0 86
0 87 73 -3 c39 -2 118 -6 175 -9z m-644 -104 l6 -75 -167 -27 c-92 -15 -168
-26 -170 -24 -1 1 -10 38 -19 80 -12 58 -13 80 -5 86 10 5 130 26 321 54 22 3
27 -10 34 -94z m1033 56 c41 -7 77 -16 79 -19 6 -6 -23 -157 -31 -165 -2 -3
-44 3 -92 11 -81 15 -223 37 -238 37 -7 0 2 130 11 161 4 14 14 15 100 3 53
-8 130 -20 171 -28z m-1400 -91 c20 -96 18 -102 -24 -110 -21 -3 -94 -22 -161
-41 -68 -20 -125 -34 -127 -32 -10 11 -52 154 -46 160 11 12 294 87 321 85 21
-2 26 -9 37 -62z m1713 18 c69 -19 128 -37 131 -41 10 -10 -43 -162 -55 -162
-6 0 -56 13 -111 29 -55 16 -125 34 -156 41 l-56 12 14 72 c8 39 16 77 19 84
5 18 48 11 214 -35z m-2054 -212 c-166 -65 -311 -120 -311 -118 -9 18 -65 148
-65 151 0 6 139 64 245 101 l89 33 26 -82 c17 -52 23 -82 16 -85z m2392 99
c70 -28 133 -54 140 -58 10 -7 5 -26 -20 -85 -18 -42 -39 -77 -46 -77 -7 0
-26 6 -41 14 -22 12 -200 81 -258 101 -8 3 -4 28 15 85 32 97 19 96 210 20z
m-838 21 c244 -36 470 -92 675 -167 1117 -405 1942 -1350 2186 -2504 45 -211
60 -360 66 -622 6 -260 -2 -412 -33 -608 -120 -777 -519 -1508 -1107 -2028
-362 -319 -750 -541 -1222 -696 -311 -102 -709 -166 -1040 -166 -140 0 -423
25 -573 50 -793 135 -1537 563 -2043 1175 -41 50 -77 92 -80 95 -16 14 -174
248 -229 340 -127 211 -268 516 -318 691 -5 19 -21 74 -36 122 -38 131 -74
298 -96 448 -121 837 67 1676 532 2374 305 458 688 816 1163 1087 389 221 833
367 1275 417 52 6 109 13 125 15 17 2 163 3 325 1 233 -3 323 -7 430 -24z
m-1914 -167 c19 -42 33 -78 32 -79 -2 -2 -69 -37 -149 -78 l-146 -74 -41 73
-41 74 71 41 c58 34 225 118 236 119 2 0 19 -34 38 -76z m3054 16 c36 -18 90
-47 122 -66 l56 -34 -41 -75 c-23 -41 -45 -75 -48 -75 -3 0 -39 18 -80 41 -41
22 -104 55 -141 72 -76 36 -75 29 -27 134 l28 63 33 -15 c18 -7 62 -28 98 -45z
m-3391 -192 c40 -69 41 -74 24 -86 -14 -11 -230 -153 -254 -168 -4 -2 -30 28
-57 66 l-51 69 75 52 c87 60 206 137 215 138 4 1 25 -32 48 -71z m3693 20
c114 -71 198 -130 198 -141 0 -11 -91 -137 -99 -137 -4 0 -58 35 -123 78 -64
42 -124 82 -134 88 -16 9 -14 16 25 87 23 42 44 77 46 77 2 0 41 -23 87 -52z
m-3992 -219 c42 -58 49 -73 38 -80 -9 -5 -64 -48 -123 -96 -59 -48 -113 -92
-121 -98 -10 -7 -28 6 -68 50 -30 33 -55 63 -56 66 0 9 256 220 277 228 1 1
25 -31 53 -70z m4388 -67 c57 -46 102 -87 100 -91 -2 -5 -29 -36 -60 -70 l-56
-63 -124 102 c-68 57 -127 106 -131 110 -5 4 15 40 43 79 l52 72 37 -27 c20
-15 82 -66 139 -112z m-4731 -343 c-62 -64 -117 -118 -122 -121 -6 -3 -39 20
-75 52 l-64 57 129 128 128 129 58 -65 58 -64 -112 -116z m5013 84 l92 -97
-63 -58 c-35 -31 -67 -57 -71 -58 -5 0 -159 153 -237 235 -2 2 23 33 54 69
l58 65 38 -30 c21 -16 79 -73 129 -126z m-5215 -170 l63 -56 -72 -86 c-62 -75
-117 -144 -137 -174 -4 -5 -39 14 -78 43 l-71 52 27 36 c47 64 194 242 199
242 3 0 34 -25 69 -57z m5371 0 c51 -60 100 -122 147 -185 l27 -36 -71 -52
c-39 -28 -74 -50 -79 -48 -5 2 -28 28 -52 60 -24 31 -70 88 -102 128 l-59 71
64 59 c35 33 67 59 70 60 3 0 28 -26 55 -57z m227 -295 c42 -60 147 -226 147
-233 0 -6 -146 -85 -157 -85 -5 0 -17 15 -27 33 -11 17 -50 78 -87 134 l-68
102 72 55 c40 30 73 55 74 55 1 1 21 -27 46 -61z m-5828 6 c36 -25 65 -47 65
-49 0 -2 -38 -59 -83 -127 -46 -68 -86 -130 -89 -138 -3 -11 -20 -5 -74 24
-38 21 -73 41 -77 46 -9 8 10 42 111 193 36 53 69 97 73 97 4 0 38 -21 74 -46z
m-138 -358 c1 0 -29 -62 -66 -136 -37 -74 -70 -142 -73 -150 -4 -12 -19 -8
-82 19 -42 19 -78 37 -80 40 -5 9 64 156 113 239 l41 71 73 -41 c39 -22 73
-41 74 -42z m6225 -86 c34 -69 64 -128 66 -132 3 -9 -143 -78 -162 -77 -6 0
-43 65 -83 145 l-72 144 77 43 77 44 17 -21 c9 -12 45 -77 80 -146z m-6460
-192 c40 -17 75 -33 77 -35 2 -1 -12 -44 -32 -95 -20 -51 -47 -121 -60 -156
-12 -35 -25 -64 -27 -65 -3 -1 -42 10 -86 23 l-82 25 25 70 c30 86 104 265
109 265 2 0 36 -14 76 -32z m6567 -41 c17 -39 47 -115 65 -167 l33 -94 -89
-29 c-50 -16 -91 -27 -92 -25 -1 2 -13 32 -25 68 -13 36 -39 105 -58 153 -20
48 -33 90 -31 92 6 6 152 74 159 75 4 0 21 -33 38 -73z m-6654 -320 c22 -8 39
-19 38 -23 0 -5 -17 -67 -36 -139 -20 -71 -38 -142 -41 -156 l-6 -26 -82 16
c-57 12 -84 22 -86 32 -3 15 58 262 77 311 10 26 11 26 53 13 24 -7 61 -20 83
-28z m6805 -125 c23 -84 40 -160 38 -169 -2 -13 -25 -21 -88 -34 -47 -10 -86
-16 -88 -15 -2 3 -89 326 -88 326 1 0 39 13 86 29 47 16 88 26 92 22 4 -3 26
-75 48 -159z m-6932 -218 c67 -14 82 -20 77 -33 -8 -29 -45 -265 -45 -294 l0
-28 -82 6 c-105 8 -106 9 -102 37 18 125 46 296 50 311 6 21 1 21 102 1z
m6986 -1 c4 -15 34 -199 50 -310 4 -27 -3 -29 -110 -38 l-81 -7 -12 94 c-7 51
-18 125 -26 163 -7 39 -10 73 -7 77 7 6 133 35 164 37 9 1 19 -7 22 -16z
m-7000 -370 l39 -5 -7 -82 c-3 -44 -6 -118 -6 -164 l0 -83 -91 3 -92 3 2 95
c0 52 4 130 7 173 l7 79 51 -7 c28 -3 69 -8 90 -12z m7060 -75 c3 -51 8 -130
10 -175 l5 -83 -98 0 -98 0 -7 161 c-4 89 -6 163 -3 165 2 2 35 8 73 13 123
15 111 24 118 -81z m-7033 -385 c0 -49 4 -123 7 -165 l7 -77 -40 -5 c-22 -3
-63 -8 -91 -11 l-51 -5 -7 77 c-5 64 -9 236 -7 266 1 4 42 7 91 7 l90 0 1 -87z
m7041 -8 c-1 -49 -5 -127 -8 -173 l-6 -83 -42 5 c-22 3 -67 8 -99 11 -54 6
-58 8 -53 28 3 12 8 86 12 165 l7 143 96 -3 95 -3 -2 -90z m-7013 -337 c7 -46
19 -118 27 -162 7 -43 14 -82 14 -86 0 -9 -170 -44 -177 -36 -7 7 -30 132 -47
250 -13 95 -13 96 8 101 26 6 79 11 127 13 l37 2 11 -82z m6982 66 c14 -4 14
-15 3 -102 -15 -111 -40 -241 -47 -248 -5 -5 -177 25 -185 32 -2 1 6 62 18
136 11 73 23 148 26 167 l5 33 82 -6 c45 -4 89 -9 98 -12z m-6931 -349 c0 -9
18 -82 41 -162 22 -80 37 -149 32 -153 -4 -4 -43 -19 -86 -33 l-78 -26 -10 26
c-19 50 -80 297 -77 312 3 13 89 38 171 50 4 1 7 -6 7 -14z m6790 -4 l85 -17
-2 -40 c-2 -42 -69 -294 -81 -305 -6 -6 -168 43 -179 55 -6 6 80 326 87 325 3
0 43 -8 90 -18z m-6643 -476 c30 -77 55 -148 56 -158 3 -25 -152 -95 -165 -75
-14 22 -108 265 -114 295 -5 28 -4 29 73 55 43 14 82 25 86 24 5 -1 33 -64 64
-141z m6554 117 l86 -28 -36 -104 c-51 -142 -92 -232 -105 -227 -105 41 -167
74 -162 87 25 81 113 300 121 300 6 0 49 -13 96 -28z m-118 -350 l67 -31 -25
-58 c-28 -62 -111 -220 -127 -240 -7 -8 -28 -1 -81 29 -40 22 -77 45 -84 50
-9 7 0 33 36 101 27 51 60 116 75 144 30 59 19 59 139 5z m-6288 -99 c38 -76
70 -142 70 -146 0 -5 -35 -28 -77 -52 l-77 -44 -35 58 c-20 31 -54 98 -77 147
-23 49 -43 92 -46 97 -5 8 133 75 157 76 10 1 40 -48 85 -136z m105 -192 c0
-4 38 -65 85 -136 47 -70 85 -129 85 -130 0 -6 -140 -105 -148 -105 -17 0
-198 278 -187 288 8 9 149 90 158 91 4 1 7 -3 7 -8z m5989 -37 c44 -25 81 -49
81 -52 0 -7 -95 -155 -147 -229 l-44 -62 -77 56 c-42 32 -78 58 -80 59 -5 3
172 273 179 274 4 0 43 -21 88 -46z m-5752 -311 c28 -38 76 -97 107 -132 l57
-63 -68 -64 c-37 -35 -71 -63 -75 -64 -7 0 -145 166 -201 242 l-27 36 73 55
c39 30 75 56 78 56 3 1 28 -29 56 -66z m5563 6 l71 -51 -28 -37 c-43 -57 -128
-162 -165 -206 l-35 -39 -71 64 c-40 36 -72 70 -72 76 0 6 9 19 21 30 12 10
58 65 102 122 46 58 86 101 93 98 7 -3 45 -28 84 -57z m-211 -390 c-22 -27
-80 -85 -127 -130 l-86 -80 -68 73 -67 73 121 122 121 122 73 -66 73 -66 -40
-48z m-5055 52 l119 -119 -63 -71 -63 -71 -38 30 c-20 17 -79 74 -129 127
l-91 97 68 62 c37 35 70 63 73 64 3 0 59 -54 124 -119z m162 -152 c10 -12 67
-60 126 -106 66 -52 105 -89 101 -96 -4 -7 -29 -42 -56 -79 l-49 -68 -36 27
c-58 43 -163 127 -207 165 l-39 35 64 71 c35 40 67 72 70 72 4 0 15 -10 26
-21z m4604 -51 l64 -71 -39 -35 c-44 -37 -149 -122 -206 -165 l-37 -28 -51 71
c-29 39 -54 77 -57 84 -3 8 38 47 103 98 60 47 115 93 122 102 7 9 19 16 25
16 7 0 41 -32 76 -72z m-4192 -257 l112 -74 -41 -76 c-23 -42 -45 -80 -49 -84
-7 -8 -131 65 -237 140 l-62 44 57 78 57 78 25 -16 c14 -9 76 -50 138 -90z
m3901 30 c56 -73 59 -80 43 -93 -22 -20 -249 -167 -266 -174 -10 -4 -30 23
-62 82 -44 80 -46 89 -30 98 10 6 70 46 134 88 64 43 118 78 119 78 1 0 29
-35 62 -79z m-3591 -205 c72 -36 132 -68 132 -70 0 -2 -18 -43 -39 -90 l-40
-86 -43 19 c-54 24 -205 102 -240 125 l-26 17 40 72 c52 92 58 100 72 88 6 -5
71 -39 144 -75z m3274 -1 l46 -85 -56 -34 c-78 -47 -244 -126 -252 -121 -14 9
-82 179 -74 183 5 1 68 34 139 71 72 37 135 69 140 69 6 1 31 -36 57 -83z
m-318 -164 c20 -46 33 -87 29 -91 -19 -17 -293 -120 -318 -120 -11 0 -73 176
-64 184 2 2 63 27 136 54 73 28 140 55 150 61 23 13 24 11 67 -88z m-2719 56
c44 -18 113 -44 153 -57 39 -14 72 -29 72 -35 0 -5 -13 -49 -28 -96 l-28 -86
-49 17 c-176 60 -287 109 -282 124 23 59 72 166 77 166 3 0 41 -15 85 -33z
m2372 -179 c17 -51 28 -96 24 -100 -11 -12 -263 -79 -305 -81 l-40 -2 -18 89
c-10 50 -15 93 -11 96 5 4 67 22 138 40 72 18 139 36 150 41 11 4 22 8 25 8 3
1 20 -41 37 -91z m-1943 38 c77 -20 141 -38 143 -39 5 -6 -29 -163 -38 -178
-7 -12 -34 -7 -152 23 -210 54 -198 48 -182 100 39 125 47 140 69 135 11 -2
84 -21 160 -41z m1590 -139 c10 -49 15 -91 12 -94 -7 -7 -132 -30 -249 -47
-74 -10 -97 -10 -101 -1 -2 7 -7 53 -11 104 l-8 91 29 0 c16 1 90 11 164 24
74 12 138 20 141 17 3 -3 14 -46 23 -94z m-1226 67 l134 -19 -7 -85 c-8 -106
-12 -119 -33 -115 -9 2 -83 14 -164 26 -81 12 -152 25 -158 29 -8 5 -6 33 6
99 l18 93 36 -5 c19 -2 95 -13 168 -23z m385 -34 l97 0 0 -105 0 -104 -82 5
c-46 2 -125 7 -176 10 l-94 6 6 42 c3 22 8 67 12 100 l7 59 66 -7 c36 -3 110
-6 164 -6z m471 -40 c3 -27 9 -72 12 -99 l6 -49 -94 -6 c-51 -3 -130 -7 -175
-10 l-83 -4 0 104 0 103 113 4 c61 1 135 4 164 5 l51 2 6 -50z"/>
<path d="M3640 7291 c0 -5 8 -12 18 -15 9 -3 22 -16 28 -28 6 -13 32 -65 58
-116 l47 -92 -53 -103 c-33 -64 -62 -106 -76 -112 -44 -19 -25 -35 43 -35 51
0 65 3 65 15 0 8 -7 15 -16 15 -11 0 -14 6 -9 23 10 32 67 137 74 137 6 0 81
-144 81 -155 0 -3 -7 -5 -15 -5 -8 0 -15 -7 -15 -15 0 -12 15 -15 75 -15 54 0
75 4 75 13 0 7 -10 17 -21 22 -14 6 -45 56 -82 126 l-60 116 43 82 c48 92 76
132 92 128 6 -1 13 4 15 11 3 9 -14 12 -66 12 -68 0 -94 -12 -51 -23 20 -5 19
-9 -17 -81 -20 -42 -40 -76 -43 -76 -8 0 -70 128 -70 145 0 8 5 14 11 13 6 -2
14 3 16 10 3 9 -15 12 -71 12 -42 0 -76 -4 -76 -9z"/>
<path d="M4030 7290 c0 -5 7 -10 15 -10 27 0 32 -36 30 -235 -3 -244 -1 -225
-25 -225 -11 0 -20 -7 -20 -15 0 -12 16 -15 80 -15 51 0 80 4 80 11 0 6 -9 13
-20 16 -24 6 -22 -13 -25 223 -3 198 3 240 30 240 8 0 15 5 15 10 0 6 -33 10
-80 10 -47 0 -80 -4 -80 -10z"/>
<path d="M4210 7291 c0 -5 9 -11 20 -14 19 -5 20 -14 20 -227 0 -213 -1 -222
-20 -227 -11 -3 -20 -12 -20 -19 0 -11 19 -14 80 -14 81 0 103 12 55 30 l-25
10 2 217 c3 215 3 218 26 228 40 18 23 25 -58 25 -44 0 -80 -4 -80 -9z"/>
<path d="M2493 6964 c-53 -35 -70 -61 -34 -51 11 3 26 -2 34 -12 33 -37 217
-342 217 -359 0 -25 -20 -42 -50 -42 -22 0 -55 17 -208 106 -40 23 -50 57 -54
178 -2 64 1 91 10 94 12 4 18 32 6 32 -3 0 -30 -15 -60 -32 -54 -33 -66 -56
-26 -50 17 3 22 -2 22 -21 0 -13 3 -52 6 -86 l7 -62 -72 43 c-63 38 -90 68
-61 68 6 0 10 7 10 15 0 8 -2 15 -5 15 -17 0 -134 -83 -129 -92 3 -5 13 -7 21
-3 16 5 210 -103 232 -129 16 -19 27 -251 12 -260 -14 -9 -15 -26 -1 -26 16 0
110 61 110 71 0 5 -11 9 -24 9 -20 0 -24 6 -30 46 -8 63 -8 126 2 122 37 -16
142 -82 142 -88 0 -5 -4 -12 -10 -15 -13 -8 -13 -25 1 -25 17 0 129 71 129 82
0 5 4 7 8 4 5 -3 32 10 61 29 29 19 57 35 62 35 5 0 9 7 9 15 0 11 -8 15 -26
13 -23 -3 -36 14 -140 177 -62 99 -111 186 -109 193 3 6 8 19 11 27 10 24 -16
17 -73 -21z"/>
<path d="M5580 6891 c0 -6 5 -19 11 -29 10 -15 -7 -49 -101 -205 -94 -157
-116 -187 -134 -185 -41 6 -27 -18 34 -55 66 -40 81 -41 61 -4 -11 21 -5 35
60 143 40 65 80 133 89 149 59 103 62 107 86 101 29 -8 33 14 7 30 -76 46
-113 64 -113 55z"/>
<path d="M1201 5759 c-17 -28 -31 -55 -31 -60 0 -13 28 -11 32 3 4 12 29 -19
72 -95 l28 -48 -64 6 c-100 10 -110 13 -103 34 14 46 -17 26 -55 -35 -42 -67
-45 -88 -9 -66 25 16 257 -2 276 -21 6 -6 34 -50 63 -97 37 -62 50 -93 48
-115 -2 -19 2 -30 9 -30 12 0 73 88 73 105 0 13 -17 13 -25 0 -12 -20 -24 -9
-69 65 l-46 75 53 0 c28 0 69 -3 90 -7 31 -5 38 -9 34 -24 -10 -39 23 -18 58
36 39 61 42 75 20 75 -8 0 -15 -5 -15 -11 0 -15 -235 -2 -270 14 -37 18 -130
183 -123 219 8 43 -11 33 -46 -23z"/>
<path d="M6753 5771 c7 -27 -1 -35 -68 -74 -33 -19 -116 -67 -184 -106 -113
-66 -151 -79 -151 -52 0 6 -6 8 -14 5 -10 -4 -5 -20 23 -69 36 -65 69 -88 57
-41 -6 26 -24 14 263 179 107 61 110 62 133 48 11 -7 22 -10 26 -7 5 6 -39 96
-61 124 -14 18 -30 14 -24 -7z"/>
<path d="M6844 5625 c-3 -8 -3 -19 0 -24 8 -12 -16 -27 -199 -134 -172 -99
-180 -103 -200 -87 -27 23 -30 0 -5 -43 13 -23 29 -52 34 -64 13 -28 32 -24
29 6 -3 25 8 33 262 178 93 54 128 68 132 56 5 -13 33 -19 33 -7 0 9 -71 134
-76 134 -3 0 -7 -7 -10 -15z"/>
<path d="M1175 4249 c-6 -13 -58 -46 -127 -83 l-118 -61 -97 50 c-61 31 -102
59 -108 73 -19 44 -35 25 -35 -43 0 -51 3 -65 15 -65 8 0 15 7 15 15 0 22 13
19 92 -21 l72 -36 -74 -39 c-88 -45 -90 -45 -90 -18 0 12 -5 19 -12 17 -8 -3
-14 -28 -15 -69 -4 -87 2 -100 30 -67 12 15 69 51 127 82 l106 55 104 -53 c62
-32 109 -62 115 -75 5 -11 16 -21 23 -21 18 0 12 122 -5 128 -7 2 -13 -3 -13
-12 0 -23 -16 -19 -100 23 l-74 39 82 41 c45 22 83 41 86 41 2 0 6 -10 10 -22
11 -46 27 -2 24 67 -3 70 -16 91 -33 54z"/>
<path d="M7268 4242 c-5 -16 -20 -20 -113 -25 -60 -4 -160 -7 -222 -7 -106 0
-115 1 -120 20 -3 11 -12 20 -19 20 -11 0 -14 -18 -14 -75 0 -60 3 -75 15 -75
8 0 15 8 15 19 0 17 14 19 209 26 116 3 219 4 230 0 12 -4 21 -15 21 -27 0
-11 5 -18 13 -16 19 7 23 158 4 158 -8 0 -17 -8 -19 -18z"/>
<path d="M6784 4019 c3 -34 6 -70 6 -80 0 -24 16 -25 22 -1 7 24 82 32 296 32
l152 0 10 -25 c18 -48 30 -26 30 55 0 64 -3 80 -15 80 -8 0 -15 -9 -15 -20 0
-19 -7 -20 -157 -22 -87 -1 -178 -3 -203 -4 -69 -4 -100 4 -100 27 0 11 -7 19
-16 19 -15 0 -16 -9 -10 -61z"/>
<path d="M6790 3820 c0 -47 4 -80 10 -80 6 0 10 7 10 15 0 29 39 35 248 35
201 0 210 -1 215 -20 3 -11 10 -20 16 -20 7 0 11 27 11 75 0 57 -3 75 -14 75
-7 0 -16 -9 -19 -20 -5 -18 -16 -19 -198 -22 -234 -4 -250 -2 -256 23 -12 44
-23 14 -23 -61z"/>
<path d="M694 3848 c3 -13 6 -49 6 -80 0 -32 5 -58 10 -58 6 0 10 9 10 19 0
10 7 22 16 25 9 3 110 6 226 6 201 0 210 -1 215 -20 3 -11 12 -20 19 -20 11 0
14 18 14 75 0 57 -3 75 -14 75 -7 0 -16 -9 -19 -20 -5 -19 -14 -20 -227 -20
-213 0 -222 1 -227 20 -3 11 -12 20 -20 20 -11 0 -14 -6 -9 -22z"/>
<path d="M1340 2953 c0 -26 -15 -37 -182 -131 -164 -92 -185 -102 -205 -91
-13 7 -25 10 -28 7 -9 -9 66 -139 76 -132 5 3 9 16 9 29 0 20 25 38 177 124
168 95 213 115 213 91 0 -5 7 -10 15 -10 22 0 19 10 -22 79 -40 67 -53 75 -53
34z"/>
<path d="M1436 2819 c-3 -8 -6 -22 -8 -32 -2 -12 -53 -47 -143 -98 -217 -123
-222 -126 -246 -110 -12 7 -23 10 -26 7 -9 -9 61 -136 76 -136 8 0 11 7 8 19
-8 31 -17 25 256 180 59 33 112 61 116 61 5 0 14 -7 21 -15 8 -9 17 -12 22 -7
5 5 -8 38 -31 77 -24 41 -42 63 -45 54z"/>
<path d="M6508 2731 c-21 -33 -38 -64 -38 -70 0 -14 17 -14 25 -1 13 21 41 7
211 -105 146 -96 174 -119 169 -134 -14 -44 15 -26 53 31 29 45 38 66 30 73
-7 7 -12 6 -15 -2 -9 -26 -42 -11 -208 97 -149 97 -170 114 -170 137 -1 44
-18 36 -57 -26z"/>
<path d="M1519 2663 c-1 -5 -2 -17 -3 -28 -1 -14 -49 -46 -185 -124 -160 -91
-187 -102 -203 -92 -31 19 -34 4 -8 -42 13 -23 29 -52 35 -64 13 -29 31 -23
28 8 -3 21 17 35 178 127 177 100 213 115 222 90 2 -7 8 -9 13 -5 10 9 -53
137 -67 137 -5 0 -9 -3 -10 -7z"/>
<path d="M6357 2513 c-17 -16 3 -44 153 -210 131 -145 160 -182 155 -200 -10
-42 22 -25 54 27 36 58 36 60 16 60 -8 0 -15 -4 -15 -10 0 -26 -33 -4 -91 62
-35 40 -83 93 -106 118 -23 25 -40 46 -39 48 5 4 291 -99 300 -108 6 -6 4 -15
-3 -24 -13 -16 4 -35 19 -20 23 26 78 118 75 125 -3 4 -17 3 -33 -3 -23 -8
-61 2 -247 66 -236 82 -228 79 -238 69z"/>
<path d="M1455 2325 c-213 -58 -234 -62 -253 -43 -26 26 -25 -7 3 -58 31 -57
61 -74 49 -29 -3 14 -5 25 -3 25 2 0 71 18 154 40 82 21 151 38 153 36 1 -2
-28 -32 -65 -67 -37 -35 -87 -83 -112 -106 -48 -47 -59 -51 -67 -28 -7 17 -34
20 -34 4 0 -17 70 -129 81 -129 5 0 9 11 9 24 0 17 45 66 175 191 97 92 174
173 172 179 -7 22 -67 13 -262 -39z"/>
<path d="M2290 1726 c0 -9 5 -16 10 -16 6 0 10 -4 10 -10 0 -8 -194 -355 -207
-370 -2 -2 -16 -4 -31 -5 -15 0 -27 -4 -26 -10 1 -11 126 -85 133 -79 2 2 -1
15 -8 28 -12 21 -5 37 84 192 110 192 121 207 147 198 11 -3 18 0 18 8 0 7
-26 27 -57 43 -74 39 -73 39 -73 21z"/>
<path d="M2440 1641 c0 -6 5 -13 10 -16 22 -13 14 -29 -147 -303 -49 -85 -57
-93 -79 -88 -16 4 -24 2 -24 -6 0 -17 127 -84 137 -74 5 5 2 11 -4 13 -26 9
-11 46 83 210 112 196 111 195 137 191 42 -6 24 18 -36 50 -67 34 -77 37 -77
23z"/>
<path d="M5392 1577 c-8 -9 7 -74 59 -245 58 -196 67 -235 57 -251 -7 -11 -9
-23 -6 -27 9 -9 119 59 114 71 -4 10 -11 11 -36 1 -13 -5 -25 24 -61 149 -25
85 -43 155 -40 155 11 0 221 -215 221 -227 0 -6 -8 -14 -17 -17 -12 -5 -13
-10 -6 -17 8 -8 29 -1 72 26 63 39 79 65 37 62 -18 -2 -64 36 -199 166 -96 92
-177 167 -180 167 -2 0 -9 -6 -15 -13z"/>
<path d="M2565 1320 c-120 -120 -176 -170 -192 -170 -36 0 -27 -14 28 -49 53
-33 83 -33 53 0 -17 19 -15 23 100 137 65 64 116 112 113 106 -3 -6 -15 -46
-27 -90 -54 -202 -59 -215 -84 -208 -49 12 -34 -16 27 -50 76 -43 96 -46 74
-13 -13 21 -10 39 45 232 32 116 61 225 65 243 11 63 -28 37 -202 -138z"/>
<path d="M4073 1198 c-6 -7 -36 -110 -68 -228 -62 -234 -68 -250 -91 -250 -9
0 -14 -6 -11 -12 2 -9 25 -13 67 -13 42 0 65 4 68 13 2 7 -5 12 -17 12 -11 0
-22 3 -24 8 -2 4 15 77 38 162 l42 155 11 -40 c33 -121 62 -246 62 -264 0 -14
-6 -21 -20 -21 -11 0 -20 -7 -20 -15 0 -13 13 -15 77 -13 78 3 101 15 61 33
-19 9 -30 41 -78 235 -55 223 -64 250 -79 250 -5 0 -13 -6 -18 -12z"/>
<path d="M3735 1190 c-3 -6 5 -14 19 -20 l26 -10 0 -207 c0 -115 -4 -213 -8
-219 -4 -6 -16 -14 -26 -17 -32 -12 -11 -19 68 -22 56 -2 76 1 76 10 0 7 -9
15 -20 18 -19 5 -20 14 -20 226 0 214 1 221 20 221 11 0 20 7 20 15 0 12 -15
15 -74 15 -41 0 -78 -5 -81 -10z"/>
</g>
</svg>
